<svg xmlns="http://www.w3.org/2000/svg" viewBox="-3 0 100 100" width="100" height="100">
  <title>KBeauty Mirror CRM</title>
  <style>.cls-1{fill:#d4a38e}</style>
        <path class="cls-1" d="M92.06,69.2l-.04-17.04c0-3.53-1.75-6.64-4.3-8.96l-.18-8.06c-.08-4.06-9.87-6.44-13.16-7.01-11.74-2.07-23.68-2.13-35.37.16-14.68,2.9-14.05,9.02-11.9,9.04,1.85.02.22-1.91,3.63-3.76,2.94-1.6,6.01-2.46,9.4-3.07,11.98-2.19,24.18-2.03,36.1.45,2.07.41,8.63,2.38,8.87,4.43.37,3.21-4.2,5.54-7.05,6.5-6.72,2.27-13.75,2.62-20.89,2.82-3.55.1-6.78.16-10.3-.41-6.8-1.1-13.2-3.21-19.43-6.09-.69-.32-1.44-.02-1.89.32-1.1.83-.53,4.2-1,5.99-.2.69-1,1.1-1.34,1.73-1.18,2.27-1.6,4.65-1.73,7.21-2.98,1.5-12.49,3.33-13.81-.51.18-10.8,8.18-24.27,15.37-32.06,5.79-6.25,13.22-10.56,21.32-13,2.52-.77,4.63.06,6.23,1.65,1.6,1.58,2.07,3.61,1.54,6.03-.97,4.35-4.71,6.56-3.15,7.68,2.07,1.48,4.81-4.97,5.32-6.62,1-3.19.35-6.84-2.23-9.06-2.21-1.89-4.14-3.82-6.23-5.85-4.67-4.49-15.64.99-20.29,4.28-8.45,5.95-15.33,13.75-20.53,22.7-2.82,4.83-8.02,17.12-3.37,21.81l4.93,4.98c3.23,3.45,10.6,1.99,14.72.67.35,3.8.39,7.49.2,11.29-.18,3.47,1.56,6.01,4.93,7.61-3.17.39-7.13.91-8.73,3.92-1.34,2.54.75,5.58,2.7,7.15,2.76,2.25,5.97,3.01,9.4,3.74,7.41,1.62,15.57.89,21.77-4.08.81,1.75,2.01,2.99,3.76,3.82,9.18,4.26,16.31,5.52,25-.75,2.07-1.5,3.98-3.15,4.98-5.34.99-2.19.63-4.75-1.46-6.07,3.7-1.5,8.26-3.57,8.24-8.24ZM5.32,50.52v.02c-2.29-1.16-3.49-3.55-3.19-6.23,1.3-11.7,9.67-23.11,17.99-30.97,5.26-4.98,15.43-12.31,22.89-10.62,1.22.28,1.99,1.56,2.64,2.29-9.42,2.46-17.87,7.23-24.47,14.36-7.15,7.72-14.38,19.96-15.86,31.15ZM25.7,46.92c1.32.93,7.9,5.08,8.61,3.23.3-.83.08-1.54-.75-1.81-2.34-.75-4.41-1.95-6.42-3.39-.22-1.4-.02-2.7.26-4.12,7.31,3.03,14.72,5.6,22.72,6.17,3.43.24,6.7.12,10.09,0,7.64-.26,18.88-1.38,24.9-6.31.2,1.12.53,2.62-.06,3.43-8.33,6.97-23.92,7.25-34.26,6.7-.75-.04-1.24.33-1.42.89-.16.51.26,1.4,1.1,1.46,11.03.85,27.6.14,36.45-7.47,2.09,2.27,2.98,5.08,2.78,8.08-16.83,7.64-35.54,8.08-53.3,4.18-4.53-1-8.69-2.5-12.41-5.14.04-2.11.41-4.24,1.71-5.89ZM27.25,87.54c-2.38-.47-4.65-1.44-6.6-3.25-1.04-.99-2.46-3.63-1.26-4.95,2.99-3.31,8.28-3.05,12.08-1.06,2.19,1.14,3.68,2.78,5.91,4.18-5.58,4.51-9.75-1.1-10.95,1.65-.53,1.24.49,2.11.83,3.43ZM46.15,72.37l-3.47,8.96c-.39-1.44,1.5-7.13.41-7.19-.89,0-1.1,5.64-1.34,6.46-.99-1.95-.57-3.98-2.05-5.89-.65,2.32,1.08,4.1,1.06,6.58-1.44-1.48-2.15-3.47-4.08-4.85-.04,2.27,2.4,2.92,2.84,5.22-2.42-2.07-5.04-3.61-7.66-5.26-1.79-1.12-2.54-3.23-1.73-4.83.97-1.91,2.9-2.88,4.98-1.99.99.41,1.75,1.08,2.62,1.58.65-1.1.93-2.25,1.79-3.21,1.28-1.44,3.78-1.67,5.32-.39,1.32,1.12,1.91,3.23,1.3,4.81ZM51.04,70.99c2.52-2.23,6.19-2.56,8.91-.69,2.7,1.89-1.34,6.86-3.19,8.63-.61-1.14-.59-2.07-1.28-2.5-2.9-1.85-4.97,3.15-10.13,3.07,1.34-3.27,3.17-6.31,5.69-8.51ZM45.76,87.33c-4.63,1.81-9.71,2.21-14.48.99-1.6-.41-2.86-1.64-3.19-3.25v-.02l4.18.91c2.34.51,4.57-1.14,6.7-2.25,1.34.75,2.23,1.83,3.55,2.4l1.99-4.77c3.53-.26,6.56-1.58,9.54-3.94,3.72,3.33-6.07,9.06-8.28,9.93ZM57.83,88.86c-1.34-.3-5.91-2.4-4.06-4.61,3.25-3.86,8.91-.55,11.7,2.19-2.99,1.1-5.38-.81-6.92.32-.57.39-.67,1.08-.73,2.11ZM70.86,81.99c-.85,1-.85,2.29-1.08,3.59-.59-.53-.71-3.76-1.3-3.72v.02c-1.14.1.18,1.89-.2,3.17-.93-.89-1.16-2.09-2.38-2.88-.65,1.18.75,1.54.77,2.64-1.91-1.16-5.71-4.39-3.53-6.74,2.19-2.32,5.02,1,5.2,1.06.69.22,1.34-3.8,4.39-2.48,1.65.71,2.09,2.6,1,4.16-.93,1.36-1.93,2.6-2.58,4.1-.49-1.18.55-1.95-.3-2.92ZM77.14,88.9c-4.57,2.92-9.91,3.45-15.01,1.64-1.24-.43-2.58-.85-2.54-2.68,2.58.61,4.91.81,7.47-.14l2.94,2.56c.95-.47.95-1.69,1.69-2.29,1.12-.87,4.16,1.02,7.43-2.38.33,1.66-.81,2.56-1.97,3.29ZM81.06,86.16c-.32-1.14-.24-1.89-.83-2.25-2.05-1.18-2.99,3.41-7.51,2.07,1.02-1.6,1.54-3.19,2.7-4.49,1.95-2.17,4.91-3.35,7.7-2.36,2.15.75.57,5.44-2.07,7.03ZM75.49,76.75c-.99-1-2.31-1.77-3.59-1.97-1.52-.2-2.66,1-3.76,1.81-1.87-.85-3.66-1.46-5.4-.3-1.52,1.02-2.36,2.76-1.58,5.16-1.32-.18-2.42-.45-3.76-.83,1.95-2.01,3.57-3.88,4.63-6.19,1.22-2.66.14-5.14-2.48-6.23-4.1-1.71-8.3-.37-11.39,3.37-.22-3.15-1.73-5.67-4.37-6.29-2.98-.67-5.4.73-6.78,3.49-1.89-1.1-4.06-1.62-6.05-.45-1.44.87-2.66,2.56-2.96,4.91-2.15-1.14-4.14-2.36-4.14-4.75l.04-12.79c8.65,5.24,22.48,6.82,32.55,7.03,11.55.24,22.72-1.79,33.26-6.32l.04,12.43c.02,5.83-10.21,7.13-14.27,7.9Z"/>
        <path class="cls-1" d="M72.31,40.61c-6.12-3.22-11.79,1.48-17.95-1.9-4.45-2.45-1.35-5.95-3.96-5.07-8.12,2.73-9.25,8.48-11.19,6.86-.31-.26-.62-.98-.18-1.53,2.89-3.56,6.6-6.38,11.03-7.69,1.05-.31,2.01-.11,2.81.41,2.27,1.52-.1,3.41,2.54,4.88,5.6,3.12,10.37-1.92,18.19,1.99.73.36,1.1,1.12.73,1.8-.41.76-1.16.7-2,.25h0Z"/>
</svg>
