<?xml version="1.0" encoding="UTF-8"?>
<svg id="Calque_1" data-name="Calque 1" xmlns="http://www.w3.org/2000/svg" viewBox="0 0 480.67 134.74">
  <defs>
    <style>
      .cls-1 {
        fill: #d4a38e;
      }
    </style>
  </defs>
  <g>
    <path class="cls-1" d="M206.73,49.28c1.95-.97,3.68-1.75,5.38-3.13,4.65-3.8,6.38-10.38,3.66-15.84-1.58-3.15-4.61-4.91-7.84-6.03-4.51-1.34-9.06-1.58-13.79-1.44l-17.52.51v57.83l20.85.41c4.71.1,9.18-.55,13.3-2.76,4.77-2.42,7.68-6.82,8.51-12.06,1.42-9.04-4.37-14.78-12.55-17.5ZM185.35,26.5c6.7-1.14,15.45-1.91,20.57,3.37,3.25,4.08,3.35,9.95.18,14.11-2.25,2.27-5.16,3.7-8.53,3.74l-12.22.06v-21.28ZM206.06,74.87c-5.42,5.04-13.56,4.22-20.71,3.05v-27.09c7.47.22,14.46-1.22,20.59,3.21,6.19,4.75,5.54,15.76.12,20.83Z"/>
    <path class="cls-1" d="M257.73,53.4c-6.77-.84-13.42-1.21-20.34-1.16v26.06c9.83.13,21.84.27,30.7-4.18l-1.24,7.03-38,.02V23.3h37.04c.05,2.33.45,4.23.14,6.65-4.11-2.75-8.64-3.43-13.46-3.74l-15.19-.04v23.18c6.92.27,13.57-.24,20.33-1.16.16,1.78.16,3.28,0,5.22h0Z"/>
    <path class="cls-1" d="M366.11,23.47c1.79-.36,3.12-.19,4.94-.09-.67,4.24-.84,8.17-.87,12.42l-.16,21.51c-.08,10.71-3.84,21.94-15.69,24.13-8.59,1.59-21.2.27-26.37-8-1.86-2.97-2.92-6.35-2.92-9.97l-.07-40.12,8.48-.05.16,40.91c.01,4.02,1.68,7.83,4.39,10.51,3.84,3.79,9.09,4.52,14.2,3.94,11.54-1.32,14.81-11.31,14.81-21.55v-20.55c-.01-4.38-.16-8.44-.89-13.07h-.01Z"/>
    <path class="cls-1" d="M297.68,23.45c-1.26-.24-2.29-.33-3.39.06l-9.02,24.02c-4.35,11.59-8.39,22.42-13.71,33.55,1.71.2,3.31.16,5.14.04,1.83-7.84,4.57-15.23,7.76-22.7l18.4.08,7.98,22.66,8.93-.08-22.09-57.63ZM285.4,55.61l8.18-21.69,8.14,21.56-16.31.14Z"/>
    <path class="cls-1" d="M472.66,35.96l-12.86,21.23v23.9l-8.66.07-.1-23.46-20.7-34.3,9.91-.1,18.03,30.49,17.33-30.5c1.85.01,3.27-.15,5.06.12l-8,12.54h0Z"/>
    <path class="cls-1" d="M406.33,81.12l-8.52.04-.02-54.96c-7.48-.16-14.68-.53-21.2,3.75-.3-2.4.09-4.32.15-6.65h50.45c.17,2.37.41,4.36.3,6.72-6.61-4.37-13.66-3.98-21.16-3.82v54.91h0Z"/>
    <g>
      <path class="cls-1" d="M92.06,69.2l-.04-17.04c0-3.53-1.75-6.64-4.3-8.96l-.18-8.06c-.08-4.06-9.87-6.44-13.16-7.01-11.74-2.07-23.68-2.13-35.37.16-14.68,2.9-14.05,9.02-11.9,9.04,1.85.02.22-1.91,3.63-3.76,2.94-1.6,6.01-2.46,9.4-3.07,11.98-2.19,24.18-2.03,36.1.45,2.07.41,8.63,2.38,8.87,4.43.37,3.21-4.2,5.54-7.05,6.5-6.72,2.27-13.75,2.62-20.89,2.82-3.55.1-6.78.16-10.3-.41-6.8-1.1-13.2-3.21-19.43-6.09-.69-.32-1.44-.02-1.89.32-1.1.83-.53,4.2-1,5.99-.2.69-1,1.1-1.34,1.73-1.18,2.27-1.6,4.65-1.73,7.21-2.98,1.5-12.49,3.33-13.81-.51.18-10.8,8.18-24.27,15.37-32.06,5.79-6.25,13.22-10.56,21.32-13,2.52-.77,4.63.06,6.23,1.65,1.6,1.58,2.07,3.61,1.54,6.03-.97,4.35-4.71,6.56-3.15,7.68,2.07,1.48,4.81-4.97,5.32-6.62,1-3.19.35-6.84-2.23-9.06-2.21-1.89-4.14-3.82-6.23-5.85-4.67-4.49-15.64.99-20.29,4.28-8.45,5.95-15.33,13.75-20.53,22.7-2.82,4.83-8.02,17.12-3.37,21.81l4.93,4.98c3.23,3.45,10.6,1.99,14.72.67.35,3.8.39,7.49.2,11.29-.18,3.47,1.56,6.01,4.93,7.61-3.17.39-7.13.91-8.73,3.92-1.34,2.54.75,5.58,2.7,7.15,2.76,2.25,5.97,3.01,9.4,3.74,7.41,1.62,15.57.89,21.77-4.08.81,1.75,2.01,2.99,3.76,3.82,9.18,4.26,16.31,5.52,25-.75,2.07-1.5,3.98-3.15,4.98-5.34.99-2.19.63-4.75-1.46-6.07,3.7-1.5,8.26-3.57,8.24-8.24ZM5.32,50.52v.02c-2.29-1.16-3.49-3.55-3.19-6.23,1.3-11.7,9.67-23.11,17.99-30.97,5.26-4.98,15.43-12.31,22.89-10.62,1.22.28,1.99,1.56,2.64,2.29-9.42,2.46-17.87,7.23-24.47,14.36-7.15,7.72-14.38,19.96-15.86,31.15ZM25.7,46.92c1.32.93,7.9,5.08,8.61,3.23.3-.83.08-1.54-.75-1.81-2.34-.75-4.41-1.95-6.42-3.39-.22-1.4-.02-2.7.26-4.12,7.31,3.03,14.72,5.6,22.72,6.17,3.43.24,6.7.12,10.09,0,7.64-.26,18.88-1.38,24.9-6.31.2,1.12.53,2.62-.06,3.43-8.33,6.97-23.92,7.25-34.26,6.7-.75-.04-1.24.33-1.42.89-.16.51.26,1.4,1.1,1.46,11.03.85,27.6.14,36.45-7.47,2.09,2.27,2.98,5.08,2.78,8.08-16.83,7.64-35.54,8.08-53.3,4.18-4.53-1-8.69-2.5-12.41-5.14.04-2.11.41-4.24,1.71-5.89ZM27.25,87.54c-2.38-.47-4.65-1.44-6.6-3.25-1.04-.99-2.46-3.63-1.26-4.95,2.99-3.31,8.28-3.05,12.08-1.06,2.19,1.14,3.68,2.78,5.91,4.18-5.58,4.51-9.75-1.1-10.95,1.65-.53,1.24.49,2.11.83,3.43ZM46.15,72.37l-3.47,8.96c-.39-1.44,1.5-7.13.41-7.19-.89,0-1.1,5.64-1.34,6.46-.99-1.95-.57-3.98-2.05-5.89-.65,2.32,1.08,4.1,1.06,6.58-1.44-1.48-2.15-3.47-4.08-4.85-.04,2.27,2.4,2.92,2.84,5.22-2.42-2.07-5.04-3.61-7.66-5.26-1.79-1.12-2.54-3.23-1.73-4.83.97-1.91,2.9-2.88,4.98-1.99.99.41,1.75,1.08,2.62,1.58.65-1.1.93-2.25,1.79-3.21,1.28-1.44,3.78-1.67,5.32-.39,1.32,1.12,1.91,3.23,1.3,4.81ZM51.04,70.99c2.52-2.23,6.19-2.56,8.91-.69,2.7,1.89-1.34,6.86-3.19,8.63-.61-1.14-.59-2.07-1.28-2.5-2.9-1.85-4.97,3.15-10.13,3.07,1.34-3.27,3.17-6.31,5.69-8.51ZM45.76,87.33c-4.63,1.81-9.71,2.21-14.48.99-1.6-.41-2.86-1.64-3.19-3.25v-.02l4.18.91c2.34.51,4.57-1.14,6.7-2.25,1.34.75,2.23,1.83,3.55,2.4l1.99-4.77c3.53-.26,6.56-1.58,9.54-3.94,3.72,3.33-6.07,9.06-8.28,9.93ZM57.83,88.86c-1.34-.3-5.91-2.4-4.06-4.61,3.25-3.86,8.91-.55,11.7,2.19-2.99,1.1-5.38-.81-6.92.32-.57.39-.67,1.08-.73,2.11ZM70.86,81.99c-.85,1-.85,2.29-1.08,3.59-.59-.53-.71-3.76-1.3-3.72v.02c-1.14.1.18,1.89-.2,3.17-.93-.89-1.16-2.09-2.38-2.88-.65,1.18.75,1.54.77,2.64-1.91-1.16-5.71-4.39-3.53-6.74,2.19-2.32,5.02,1,5.2,1.06.69.22,1.34-3.8,4.39-2.48,1.65.71,2.09,2.6,1,4.16-.93,1.36-1.93,2.6-2.58,4.1-.49-1.18.55-1.95-.3-2.92ZM77.14,88.9c-4.57,2.92-9.91,3.45-15.01,1.64-1.24-.43-2.58-.85-2.54-2.68,2.58.61,4.91.81,7.47-.14l2.94,2.56c.95-.47.95-1.69,1.69-2.29,1.12-.87,4.16,1.02,7.43-2.38.33,1.66-.81,2.56-1.97,3.29ZM81.06,86.16c-.32-1.14-.24-1.89-.83-2.25-2.05-1.18-2.99,3.41-7.51,2.07,1.02-1.6,1.54-3.19,2.7-4.49,1.95-2.17,4.91-3.35,7.7-2.36,2.15.75.57,5.44-2.07,7.03ZM75.49,76.75c-.99-1-2.31-1.77-3.59-1.97-1.52-.2-2.66,1-3.76,1.81-1.87-.85-3.66-1.46-5.4-.3-1.52,1.02-2.36,2.76-1.58,5.16-1.32-.18-2.42-.45-3.76-.83,1.95-2.01,3.57-3.88,4.63-6.19,1.22-2.66.14-5.14-2.48-6.23-4.1-1.71-8.3-.37-11.39,3.37-.22-3.15-1.73-5.67-4.37-6.29-2.98-.67-5.4.73-6.78,3.49-1.89-1.1-4.06-1.62-6.05-.45-1.44.87-2.66,2.56-2.96,4.91-2.15-1.14-4.14-2.36-4.14-4.75l.04-12.79c8.65,5.24,22.48,6.82,32.55,7.03,11.55.24,22.72-1.79,33.26-6.32l.04,12.43c.02,5.83-10.21,7.13-14.27,7.9Z"/>
      <path class="cls-1" d="M148.54,74.56c3.96,1.75,5.65-1.5,7.2-4.64,1.46,3.47.4,7.49-2.83,9.69-4.01,2.7-8.74,1.55-11.85-1.98l-23.15-26.42-.14,29.93-8.82.03V23.93s8.78-.09,8.78-.09l.16,26.29c7.02-6.19,13.68-12.16,20.04-18.69,2.32-2.39,4.35-4.66,6.19-7.4,2.49-.01,4.68-.16,7.19.09-8.96,7.49-17.66,14.98-26.4,23.11l20.62,24.83c.85,1.03,1.81,1.81,3.01,2.5h0Z"/>
      <path class="cls-1" d="M72.31,40.61c-6.12-3.22-11.79,1.48-17.95-1.9-4.45-2.45-1.35-5.95-3.96-5.07-8.12,2.73-9.25,8.48-11.19,6.86-.31-.26-.62-.98-.18-1.53,2.89-3.56,6.6-6.38,11.03-7.69,1.05-.31,2.01-.11,2.81.41,2.27,1.52-.1,3.41,2.54,4.88,5.6,3.12,10.37-1.92,18.19,1.99.73.36,1.1,1.12.73,1.8-.41.76-1.16.7-2,.25h0Z"/>
    </g>
  </g>
  <path class="cls-1" d="M252.02,105c-.69-2.74.13-5.51-.41-8.33l-3.66,5.66-3.68-5.58-.29,8.24c-.18.3-1.35.28-1.59-.04v-11.65c0-.56,1.55-.54,1.8-.13l3.71,5.99,3.73-5.96c.28-.44,1.47-.39,1.84-.05l.08,11.6c0,.48-1.44.7-1.55.27h.01Z"/>
  <path class="cls-1" d="M166.73,99.06c0,3.51-2.84,6.35-6.35,6.35s-6.35-2.84-6.35-6.35,2.84-6.35,6.35-6.35,6.35,2.84,6.35,6.35ZM164.99,99.08c0-2.54-2.06-4.61-4.61-4.61s-4.61,2.06-4.61,4.61,2.06,4.61,4.61,4.61,4.61-2.06,4.61-4.61Z"/>
  <path class="cls-1" d="M119.4,96.77c-1.37-2.36-4.41-2.95-6.62-1.51-2.21,1.44-2.55,4.83-.9,6.81,1.77,2.12,5.2,2.21,6.95.02.36-.46.57-.81.99-.71s1.24.53.89,1.12c-2.09,3.46-6.84,3.84-9.68,1.16s-2.62-7.28.51-9.63,7.61-1.51,9.42,1.99c-.39.39-.88.67-1.55.75h0Z"/>
  <path class="cls-1" d="M416.57,96.01c-1.6-2.05-4.74-1.99-6.56-.3s-1.84,4.71-.19,6.52c1.75,1.93,5.01,1.96,6.78-.07.3-.35.44-.73.72-.78.48-.08.7.13.9.29.49.38.28.93-.07,1.36-2.35,2.95-6.77,3.15-9.4.59-2.64-2.56-2.54-6.92.23-9.34,2.77-2.41,7.42-2.07,9.48,1.29.33.54-.33.9-.67,1.07-.5.25-.8-.1-1.22-.64h0Z"/>
  <path class="cls-1" d="M205.4,105.28c-2.47.42-4.84-.42-5.72-2.75-.25-.66,1.09-1.39,1.35-1.01.7,1.51,2.07,2.5,3.93,2.12.96-.19,1.6-.73,1.68-1.61.26-2.82-6.06-1.61-6.53-5.39-.14-1.1.28-2.21,1.25-2.99,1.1-.88,2.44-1.13,3.86-.76,1.07.29,2.46,1.18,2.84,2.64.13.5-1.04,1.1-1.33.73-.61-.76-1.01-1.56-1.78-1.68-.9-.14-1.84-.22-2.55.46-.4.39-.56.88-.53,1.28s.33.9.84,1.1l3.52,1.4c1.59.64,2.42,1.91,2.18,3.55-.19,1.34-1.27,2.59-3.03,2.89h0Z"/>
  <path class="cls-1" d="M458.69,104.11c-2.27,1.84-5.67,1.19-7.22-1.04-.33-.49-.45-1.01-.22-1.36.2-.3,1.1-.79,1.24-.44.65,1.64,1.87,2.35,3.64,2.13.71-.09,1.33-.3,1.71-.93,1.94-3.18-5.72-2.41-6.23-5.72-.22-1.46.1-2.73,1.38-3.55,2.32-1.5,5.69-.61,6.48,2.16.11.4-1.13.99-1.35.67-.7-1.08-1.58-2.01-3.09-1.79-.98.14-1.63.66-1.7,1.55-.23,2.75,6.06,1.56,6.52,5.41.11.91-.19,2.13-1.17,2.92Z"/>
  <path class="cls-1" d="M295.03,99.66c-1.64.46-3.29-.03-4.97.26-.16,1.18-.16,2.38,0,3.58l5.17.12c.61.01.61,1.47,0,1.5-2.44.1-4.63.08-7.02-.01v-12.14c2.4-.08,4.6-.13,7.03,0,.54.03.58,1.56.16,1.58l-5.33.22c-.19,1.1-.18,2.09-.01,3.19l4.79.16c.34.01.38,1.04.19,1.53h0Z"/>
  <path class="cls-1" d="M333.9,104.89c0,.47-1.5.39-1.75.06l-.13-10.12-3.27-.25c-.33-.02-.36-1.22-.04-1.58,2.71-.13,5.61-.12,8.43-.01.59.02.59,1.55.19,1.58l-3.24.24-.19,10.08h0Z"/>
  <rect class="cls-1" x="371.16" y="92.93" width="1.78" height="12.25"/>
  <g>
    <path class="cls-1" d="M228.88,130.08c-1.34-.33-2.72.43-4.12.18-.43-.06-.45-1.5.06-1.66,1.34-.37,2.66-.77,3.25-2.11.39-.89-.16-1.91-.97-2.38-2.05-1.22-4.53-1.24-6.62-.14-1.02.53-1.54,1.52-1.28,2.52.43,1.73,3.31,1.83,3.57,2.36.18.33.26,1.38-.08,1.54-1.26.63-2.94-.02-4.24.77-.32.2.14,1.46.49,1.44l9.56-1.2h.02c.69-.08.79-1.2.35-1.32ZM221.12,125.93c.08-1.46,4.63-1.75,4.85,0,.02,1.67-4.65,1.6-4.85,0Z"/>
    <path class="cls-1" d="M276.66,128.11l-12,.02c.02,2.21-.26,4.33.12,6.32.33.81,1.44-.39,1.99-.41,2.52-.14,5.36-.22,8.04.04,1.95.2,2.07,2.32,1.85-5.97ZM275.13,132.35h-8.89v-2.66h8.89v2.66Z"/>
    <path class="cls-1" d="M253.97,131.19c-.14-3.43-6.32-4.47-9.83-2.19-1.04.69-1.52,1.75-1.3,2.88.18.81.79,1.58,1.81,2.03,3.63,1.6,9.46.67,9.34-2.72h-.02ZM244.67,131.54c-.1-.57.2-1.24.83-1.5,2.13-.87,6.42-.89,6.68,1.16.32,2.48-7.13,2.48-7.51.33Z"/>
    <path class="cls-1" d="M248.75,127.31c-1.33-.87-2.32-2.1-3.52-3.38-1.01,1.09-1.67,2.41-2.92,3.41-.39.31-1.7-.72-1.38-1.1,1.6-1.42,3.38-3.22,3.43-5.44-1.04-.36-1.93-.01-2.92-.24-.38-.09-.4-1.42,0-1.44,2.81-.14,5.37-.13,8.17,0,.42.02.39,1.36,0,1.45-1.26.29-2.44-.26-3.62.39.46,2.38,2.23,3.81,3.97,5.16-.25.5-.73.8-1.23,1.2h.03Z"/>
    <path class="cls-1" d="M234.17,126.9c-1.03.29-1.78-.06-2.69.25l-.11,7.09c0,.37-.28.36-.42.39-.29.07-.95.01-.94-.45l.05-16.29c0-.43,1.3-.42,1.3-.02l.13,7.42c.98.31,1.93-.07,2.75.27.29.13.33,1.22-.07,1.33h-.01Z"/>
    <path class="cls-1" d="M273.79,121.98c-.27,1.66,3.01-.75,2.9,1.77-.02.5-.55.7-1.14.66-3.49-.26-6.83-.12-10.36-.04-.7.01-.6-.89-.53-1.3.18-1.13,3.07.26,2.94-1.11-.05-.51-.43-1.38-.05-1.52,2.58-.9.81,2.15,2.85,2.2.92.02,1.8-.04,1.87-1.26.03-.48.23-.98.61-1.01.53-.03,1.39-.21,1.19.62-.1.42-.25.78-.29.99h0Z"/>
    <path class="cls-1" d="M271.61,126.64c-.27.05-.24.81-.34,1-.13.27-.87.2-1.2.17-.28-.03-.17-1.01-.42-1.16-1.74-.79-7.92,1.04-6.7-1.49.13-.27.74-.33,1.24-.3,4.46.19,8.71.15,13.15,0,.46-.01.93.13,1.04.34,1.23,2.22-3.56.84-6.78,1.44h0Z"/>
    <path class="cls-1" d="M256.47,123.31c-.8.4-1.87-.03-2.77.29l-.16,3.87c-.01.39-1.41.39-1.42.03-.16-3.29-.16-6.35,0-9.65.01-.36,1.41-.36,1.42.03l.16,3.87c.87.26,1.71,0,2.69.21.35.07.39,1.2.08,1.35h0Z"/>
    <path class="cls-1" d="M228.57,122.62c-3.31.33-6.48.21-9.8.07-.44-.02-.48-1.29-.15-1.42,3.15-.24,6.66-.21,9.91-.02.26.01.3,1.35.03,1.38Z"/>
    <path class="cls-1" d="M276.3,120.02l-11.05.07c-.63,0-.64-1.55,0-1.55h11.02c.37.01.44,1.49.04,1.5h0Z"/>
    <path class="cls-1" d="M226.3,120.17c-1.69.24-3.57.3-5.21-.03-.27-.22-.25-1.1,0-1.38,1.53-.13,3.35-.19,5.06,0,.44.05.32,1.05.14,1.41h0Z"/>
  </g>
</svg>